<svg width="35" height="33" viewBox="0 0 35 33" fill="none" xmlns="http://www.w3.org/2000/svg">
<path d="M2.21642 28.75L4.44976 29.6834V14.6334L0.399758 24.4C-0.283575 26.1 0.533091 28.05 2.21642 28.75ZM34.7164 22.5834L26.4498 2.63337C25.9331 1.38337 24.7164 0.616707 23.4331 0.583374C22.9998 0.583374 22.5498 0.650041 22.1164 0.833374L9.83309 5.91671C8.58309 6.43337 7.81642 7.63337 7.78309 8.91671C7.76642 9.36671 7.84976 9.81671 8.03309 10.25L16.2998 30.2C16.8164 31.4667 18.0498 32.2334 19.3498 32.25C19.7831 32.25 20.2164 32.1667 20.6331 32L32.8998 26.9167C34.5998 26.2167 35.4164 24.2667 34.7164 22.5834ZM11.1331 10.5834C10.2164 10.5834 9.46642 9.83337 9.46642 8.91671C9.46642 8.00004 10.2164 7.25004 11.1331 7.25004C12.0498 7.25004 12.7998 8.00004 12.7998 8.91671C12.7998 9.83337 12.0498 10.5834 11.1331 10.5834ZM7.79976 28.9167C7.79976 30.75 9.29976 32.25 11.1331 32.25H13.5498L7.79976 18.35V28.9167Z" fill="#00ADEE"/>
</svg>
